<mxfile host="www.draw.io" modified="2019-12-09T17:31:37.765Z" agent="Mozilla/5.0 (Windows NT 10.0; Win64; x64) AppleWebKit/537.36 (KHTML, like Gecko) Chrome/78.0.3904.108 Safari/537.36 OPR/65.0.3467.62" etag="MfbzmJ2NzPpmCbLYgSOJ" version="12.3.8" type="github" pages="1">
  <diagram name="Bibliothek" id="c4acf3e9-155e-7222-9cf6-157b1a14988f">
    <mxGraphModel dx="1382" dy="763" grid="1" gridSize="10" guides="1" tooltips="1" connect="1" arrows="1" fold="1" page="1" pageScale="1" pageWidth="850" pageHeight="1100" background="#ffffff" math="0" shadow="0">
      <root>
        <mxCell id="0"/>
        <mxCell id="1" parent="0"/>
        <mxCell id="5d2195bd80daf111-18" value="&lt;p style=&quot;margin: 0px ; margin-top: 4px ; text-align: center&quot;&gt;&lt;b&gt;BibMain&lt;/b&gt;&lt;/p&gt;&lt;hr size=&quot;1&quot;&gt;&lt;p style=&quot;margin: 0px ; margin-left: 4px&quot;&gt;- ble_conection: BLE_Conection&lt;/p&gt;&lt;p style=&quot;margin: 0px ; margin-left: 4px&quot;&gt;+ eventhandler: Dataevent&lt;/p&gt;&lt;p style=&quot;margin: 0px ; margin-left: 4px&quot;&gt;- ObserverList: Objektlist&lt;/p&gt;&lt;p style=&quot;margin: 0px 0px 0px 4px&quot;&gt;+ ble: IBluetoothLE&lt;/p&gt;&lt;p style=&quot;margin: 0px 0px 0px 4px&quot;&gt;+ adapte : IAdapter&lt;/p&gt;&lt;p style=&quot;margin: 0px 0px 0px 4px&quot;&gt;+ device: IDevice&lt;/p&gt;&lt;hr size=&quot;1&quot;&gt;&lt;p style=&quot;margin: 0px 0px 0px 4px&quot;&gt;+ startScanning():?(Liste gefundener devices?)&lt;/p&gt;&lt;p style=&quot;margin: 0px 0px 0px 4px&quot;&gt;+ stopScanning(): void (wollenWirDasReinnehmen?)&lt;/p&gt;&lt;p style=&quot;margin: 0px 0px 0px 4px&quot;&gt;+ connectToDevice(device): void&amp;nbsp;&lt;/p&gt;&lt;p style=&quot;margin: 0px ; margin-left: 4px&quot;&gt;+ startSamplig(): void&lt;/p&gt;&lt;p style=&quot;margin: 0px ; margin-left: 4px&quot;&gt;+ stopSamplig(): void&lt;/p&gt;&lt;p style=&quot;margin: 0px ; margin-left: 4px&quot;&gt;+ setSamplingrate(int): void&lt;/p&gt;&lt;p style=&quot;margin: 0px ; margin-left: 4px&quot;&gt;+ setAccelerometer(?): void&lt;/p&gt;&lt;p style=&quot;margin: 0px ; margin-left: 4px&quot;&gt;+ registerObserver(Objekt):void&lt;/p&gt;&lt;p style=&quot;margin: 0px ; margin-left: 4px&quot;&gt;+ deleteObserver(Objekt): void&lt;/p&gt;&lt;p style=&quot;margin: 0px ; margin-left: 4px&quot;&gt;- onDataReceived(): void&lt;/p&gt;&lt;p style=&quot;margin: 0px 0px 0px 4px&quot;&gt;- DatenInFormatVerpacken&lt;/p&gt;&lt;p style=&quot;margin: 0px 0px 0px 4px&quot;&gt;(Sensordaten): Dataformat&lt;/p&gt;&lt;p style=&quot;margin: 0px ; margin-left: 4px&quot;&gt;- dataPushToObserver(Objekt, EventDataformat): void&lt;/p&gt;&lt;p style=&quot;margin: 0px ; margin-left: 4px&quot;&gt;&lt;br&gt;&lt;/p&gt;&lt;p style=&quot;margin: 0px ; margin-left: 4px&quot;&gt;&amp;nbsp;&lt;/p&gt;" style="verticalAlign=top;align=left;overflow=fill;fontSize=12;fontFamily=Helvetica;html=1;rounded=0;shadow=0;comic=0;labelBackgroundColor=none;strokeWidth=1" parent="1" vertex="1">
          <mxGeometry x="310" y="320" width="300" height="330" as="geometry"/>
        </mxCell>
        <mxCell id="oqZBq_ZXrEgjeE5D2r-v-1" value="&lt;p style=&quot;margin: 0px ; margin-top: 4px ; text-align: center&quot;&gt;&lt;b&gt;Constants&lt;/b&gt;&lt;/p&gt;&lt;hr size=&quot;1&quot;&gt;&lt;p style=&quot;margin: 0px ; margin-left: 4px&quot;&gt;+ START/STOP_IMU_SAMPLIG_CHAR: String&lt;/p&gt;&lt;p style=&quot;margin: 0px ; margin-left: 4px&quot;&gt;+ ADVERSIMENT_AND_CONNECTION_INTERVALL_CHAR : String&lt;/p&gt;&lt;p style=&quot;margin: 0px ; margin-left: 4px&quot;&gt;+ ACCELEROMETER_OFFSET_CAHR: String&lt;br&gt;&lt;/p&gt;&lt;p style=&quot;margin: 0px ; margin-left: 4px&quot;&gt;+ RANGE_AND_LOWPASSFILTER&amp;nbsp; : String&lt;/p&gt;&lt;hr size=&quot;1&quot;&gt;&lt;p style=&quot;margin: 0px ; margin-left: 4px&quot;&gt;&lt;br&gt;&lt;/p&gt;" style="verticalAlign=top;align=left;overflow=fill;fontSize=12;fontFamily=Helvetica;html=1;rounded=0;shadow=0;comic=0;labelBackgroundColor=none;strokeWidth=1" parent="1" vertex="1">
          <mxGeometry x="30" y="40" width="380" height="140" as="geometry"/>
        </mxCell>
        <mxCell id="oqZBq_ZXrEgjeE5D2r-v-2" value="&lt;p style=&quot;margin: 0px ; margin-top: 4px ; text-align: center&quot;&gt;&lt;b&gt;DataEntry&lt;/b&gt;&lt;/p&gt;&lt;hr size=&quot;1&quot;&gt;&lt;p style=&quot;margin: 0px ; margin-left: 4px&quot;&gt;+ gyroX: int&lt;br&gt;&lt;/p&gt;&lt;p style=&quot;margin: 0px ; margin-left: 4px&quot;&gt;+ gyroY: int&lt;br&gt;&lt;/p&gt;&lt;p style=&quot;margin: 0px ; margin-left: 4px&quot;&gt;+ gyroZ: int&lt;br&gt;&lt;/p&gt;&lt;p style=&quot;margin: 0px ; margin-left: 4px&quot;&gt;+ accelerometerX: int&lt;/p&gt;&lt;p style=&quot;margin: 0px ; margin-left: 4px&quot;&gt;+ accelerometerY: int&lt;br&gt;&lt;/p&gt;&lt;p style=&quot;margin: 0px ; margin-left: 4px&quot;&gt;+ accelerometerZ: int&lt;br&gt;&lt;/p&gt;&lt;p style=&quot;margin: 0px ; margin-left: 4px&quot;&gt;+ gyroskop_deg/s: float&lt;/p&gt;&lt;p style=&quot;margin: 0px ; margin-left: 4px&quot;&gt;+ acceloration_m/s^2: float&lt;/p&gt;&lt;p style=&quot;margin: 0px ; margin-left: 4px&quot;&gt;+ accelaeration_g: float&lt;/p&gt;&lt;hr size=&quot;1&quot;&gt;&lt;p style=&quot;margin: 0px ; margin-left: 4px&quot;&gt;&lt;br&gt;&lt;/p&gt;" style="verticalAlign=top;align=left;overflow=fill;fontSize=12;fontFamily=Helvetica;html=1;rounded=0;shadow=0;comic=0;labelBackgroundColor=none;strokeWidth=1" parent="1" vertex="1">
          <mxGeometry x="650" y="560" width="215" height="200" as="geometry"/>
        </mxCell>
        <mxCell id="oqZBq_ZXrEgjeE5D2r-v-3" value="&lt;p style=&quot;margin: 0px ; margin-top: 4px ; text-align: center&quot;&gt;&lt;i&gt;&amp;lt;&amp;lt;Interface&amp;gt;&amp;gt;&lt;/i&gt;&lt;br&gt;&lt;b&gt;IConfigcontainer&lt;/b&gt;&lt;/p&gt;&lt;hr size=&quot;1&quot;&gt;&lt;p style=&quot;margin: 0px ; margin-left: 4px&quot;&gt;?&lt;/p&gt;&lt;hr size=&quot;1&quot;&gt;&lt;p style=&quot;margin: 0px ; margin-left: 4px&quot;&gt;?&lt;/p&gt;" style="verticalAlign=top;align=left;overflow=fill;fontSize=12;fontFamily=Helvetica;html=1;rounded=0;shadow=0;comic=0;labelBackgroundColor=none;strokeWidth=1" parent="1" vertex="1">
          <mxGeometry x="650" y="40" width="190" height="140" as="geometry"/>
        </mxCell>
        <mxCell id="oqZBq_ZXrEgjeE5D2r-v-4" value="&lt;p style=&quot;margin: 0px ; margin-top: 4px ; text-align: center&quot;&gt;&lt;b&gt;Configcontainer&lt;/b&gt;&lt;/p&gt;&lt;hr size=&quot;1&quot;&gt;&lt;p style=&quot;margin: 0px ; margin-left: 4px&quot;&gt;?&lt;/p&gt;&lt;hr size=&quot;1&quot;&gt;&lt;p style=&quot;margin: 0px ; margin-left: 4px&quot;&gt;?&lt;/p&gt;" style="verticalAlign=top;align=left;overflow=fill;fontSize=12;fontFamily=Helvetica;html=1;rounded=0;shadow=0;comic=0;labelBackgroundColor=none;strokeWidth=1" parent="1" vertex="1">
          <mxGeometry x="650" y="320" width="190" height="140" as="geometry"/>
        </mxCell>
        <mxCell id="oqZBq_ZXrEgjeE5D2r-v-5" value="" style="endArrow=classic;html=1;jumpStyle=none;startArrow=none;startFill=0;dashed=1;" parent="1" source="oqZBq_ZXrEgjeE5D2r-v-3" target="oqZBq_ZXrEgjeE5D2r-v-4" edge="1">
          <mxGeometry width="50" height="50" relative="1" as="geometry">
            <mxPoint x="60" y="700" as="sourcePoint"/>
            <mxPoint x="110" y="650" as="targetPoint"/>
          </mxGeometry>
        </mxCell>
        <mxCell id="oqZBq_ZXrEgjeE5D2r-v-9" value="&amp;lt;&amp;lt;uses&amp;gt;&amp;gt;" style="text;html=1;strokeColor=none;fillColor=none;align=center;verticalAlign=middle;whiteSpace=wrap;rounded=0;" parent="1" vertex="1">
          <mxGeometry x="240" y="400" width="40" height="20" as="geometry"/>
        </mxCell>
        <mxCell id="oqZBq_ZXrEgjeE5D2r-v-14" value="" style="endArrow=classic;html=1;entryX=0.824;entryY=1;entryDx=0;entryDy=0;entryPerimeter=0;exitX=0.126;exitY=-0.036;exitDx=0;exitDy=0;exitPerimeter=0;" parent="1" source="5d2195bd80daf111-18" target="oqZBq_ZXrEgjeE5D2r-v-1" edge="1">
          <mxGeometry width="50" height="50" relative="1" as="geometry">
            <mxPoint x="30" y="1190" as="sourcePoint"/>
            <mxPoint x="80" y="1140" as="targetPoint"/>
          </mxGeometry>
        </mxCell>
        <mxCell id="oqZBq_ZXrEgjeE5D2r-v-15" value="" style="endArrow=classic;html=1;" parent="1" source="5d2195bd80daf111-18" target="oqZBq_ZXrEgjeE5D2r-v-4" edge="1">
          <mxGeometry width="50" height="50" relative="1" as="geometry">
            <mxPoint x="490" y="230" as="sourcePoint"/>
            <mxPoint x="540" y="180" as="targetPoint"/>
          </mxGeometry>
        </mxCell>
        <mxCell id="oqZBq_ZXrEgjeE5D2r-v-16" value="" style="endArrow=classic;html=1;" parent="1" source="5d2195bd80daf111-18" target="oqZBq_ZXrEgjeE5D2r-v-21" edge="1">
          <mxGeometry width="50" height="50" relative="1" as="geometry">
            <mxPoint x="30" y="1190" as="sourcePoint"/>
            <mxPoint x="260" y="412.37704918032796" as="targetPoint"/>
          </mxGeometry>
        </mxCell>
        <mxCell id="oqZBq_ZXrEgjeE5D2r-v-18" value="" style="endArrow=classic;html=1;" parent="1" source="5d2195bd80daf111-18" target="oqZBq_ZXrEgjeE5D2r-v-2" edge="1">
          <mxGeometry width="50" height="50" relative="1" as="geometry">
            <mxPoint x="470" y="630" as="sourcePoint"/>
            <mxPoint x="520" y="580" as="targetPoint"/>
            <Array as="points">
              <mxPoint x="590" y="529"/>
            </Array>
          </mxGeometry>
        </mxCell>
        <mxCell id="oqZBq_ZXrEgjeE5D2r-v-21" value="BLE_Plugin" style="rounded=0;whiteSpace=wrap;html=1;" parent="1" vertex="1">
          <mxGeometry x="90" y="380" width="120" height="60" as="geometry"/>
        </mxCell>
      </root>
    </mxGraphModel>
  </diagram>
</mxfile>
